<svg version="1.1" id="Layer_1" xmlns="http://www.w3.org/2000/svg" xmlns:xlink="http://www.w3.org/1999/xlink" x="0px" y="0px"
	 width="100%" viewBox="0 0 1000 500" enable-background="new 0 0 1000 500" xml:space="preserve">
<path fill="#FFFFFF" opacity="1.000000" stroke="none" 
	d="
M612.000000,501.000000 
	C408.033905,501.000000 204.567780,501.000000 1.050835,501.000000 
	C1.050835,334.394989 1.050835,167.789963 1.050835,1.092469 
	C334.216156,1.092469 667.432312,1.092469 1000.824219,1.092469 
	C1000.824219,167.666519 1000.824219,334.333252 1000.824219,501.000000 
	C871.456543,501.000000 741.978271,501.000000 612.000000,501.000000 
M599.870483,299.177887 
	C600.532043,299.096375 601.204895,299.066772 601.853516,298.925873 
	C639.009644,290.855011 666.574219,256.919342 667.025940,218.701782 
	C667.490784,179.385269 640.897461,144.873001 603.111633,136.063873 
	C596.870300,134.608810 590.415405,134.069687 584.068970,133.108734 
	C583.533630,86.529465 545.135437,51.287586 502.198639,50.222282 
	C482.926208,49.744118 465.336060,55.276939 449.934570,66.940720 
	C427.967926,83.576447 417.231628,106.174019 416.037720,133.361176 
	C368.646515,134.493515 336.237976,171.086884 333.123749,210.152878 
	C331.547729,229.922852 336.132782,248.273895 347.538269,264.577087 
	C364.118744,288.277557 387.413910,299.970245 415.964661,301.252594 
	C416.286560,304.289062 416.556732,306.768188 416.811249,309.248932 
	C420.747650,347.616180 448.804291,376.978149 487.918427,383.661713 
	C522.846802,389.630035 559.618286,369.843384 575.536926,336.685333 
	C580.978821,325.350189 582.962769,313.284332 584.868713,300.969879 
	C589.593018,300.357391 594.317322,299.744873 599.870483,299.177887 
M460.573029,426.614197 
	C461.108307,430.111725 463.342499,432.031250 466.675781,432.109131 
	C474.817535,432.299225 482.969574,432.328186 491.110870,432.138062 
	C495.061981,432.045746 497.073608,429.566345 497.088593,425.585724 
	C497.102783,421.803986 497.091675,418.022186 497.091675,413.890961 
	C500.525543,414.263824 504.576996,411.311340 505.651367,416.429871 
	C507.387024,424.698944 505.973938,426.849182 499.424622,427.336487 
	C499.516663,429.096222 499.608948,430.860321 499.700806,432.617065 
	C505.919189,432.411865 505.919617,432.411865 505.938324,438.576965 
	C505.943359,440.241455 505.839203,441.914429 505.972473,443.568420 
	C506.175537,446.089539 505.245514,447.238647 502.599884,447.206207 
	C495.502411,447.119171 488.403137,447.176544 481.017944,447.176544 
	C480.988403,450.177368 482.050049,452.016327 486.126404,451.873749 
	C493.939941,451.600464 501.769836,451.796356 509.592926,451.795074 
	C521.022034,451.793243 521.932800,450.807312 521.947571,439.255371 
	C521.952759,435.210907 522.413147,431.122803 518.793091,430.084290 
	C519.839905,427.793854 521.205383,425.656738 521.764709,423.326111 
	C522.254883,421.283691 521.864258,419.023529 521.820068,416.860413 
	C521.708801,411.413696 519.918884,409.077393 514.409668,408.988586 
	C498.635925,408.734406 482.856079,408.814270 467.078857,408.850128 
	C462.605560,408.860291 460.404785,411.420135 460.343567,415.798157 
	C460.297058,419.124908 460.406219,422.453827 460.573029,426.614197 
M332.906647,420.643585 
	C332.931580,427.975830 332.929016,435.308289 332.989716,442.640259 
	C333.043640,449.152222 335.388519,451.594269 342.007751,451.759064 
	C347.670166,451.900055 353.338837,451.791748 359.004730,451.791931 
	C373.404907,451.792389 374.368286,450.814148 374.021759,436.550476 
	C373.882935,430.836792 371.606842,428.258331 365.890381,428.029053 
	C360.296692,427.804749 354.686920,427.980194 348.322937,427.980194 
	C348.322937,425.006836 348.476013,421.881195 348.284119,418.776855 
	C348.045105,414.909790 349.652313,413.327148 353.520050,413.423920 
	C359.630005,413.576843 365.746582,413.464661 372.147827,413.464661 
	C371.850922,412.011230 371.534729,410.463196 371.183777,408.745148 
	C361.781921,408.745148 352.798157,408.701996 343.815002,408.757385 
	C334.976746,408.811890 332.977173,410.862793 332.906647,420.643585 
M413.049835,443.301666 
	C413.049835,446.032166 413.049835,448.762695 413.049835,451.536743 
	C416.700684,451.536743 420.463348,451.536743 424.121643,451.536743 
	C424.121643,442.864227 424.121643,434.463043 424.121643,425.714722 
	C426.272766,425.848663 427.991943,425.955688 429.793457,426.067871 
	C429.793457,434.873535 429.793457,443.116821 429.793457,451.431396 
	C432.466400,451.431396 435.179657,451.431396 437.414520,451.431396 
	C437.414520,444.235016 437.702423,437.400818 437.320923,430.604187 
	C437.030273,425.425812 439.303802,425.053284 443.552063,426.356720 
	C443.552063,434.800568 443.552063,443.182281 443.552063,451.477844 
	C447.627136,451.477844 451.365967,451.477844 454.451202,451.477844 
	C454.451202,443.835846 454.555084,436.521912 454.416931,429.212524 
	C454.314575,423.796143 452.504700,422.058411 447.095612,422.013550 
	C437.518402,421.934082 427.939697,422.037689 418.362396,421.966095 
	C414.611450,421.938080 412.828033,423.512939 412.934082,427.357910 
	C413.071869,432.352295 413.019806,437.351929 413.049835,443.301666 
M536.919800,408.265045 
	C535.523743,408.368958 534.127686,408.472900 532.320251,408.607422 
	C533.011414,411.050598 533.541809,412.925446 534.134399,415.020142 
	C536.192932,415.020142 538.009644,415.020111 539.826416,415.020111 
	C577.953003,415.020020 616.080505,414.889435 654.205078,415.166534 
	C659.656372,415.206146 661.772644,413.252960 662.473267,408.265472 
	C620.729309,408.265472 579.277344,408.265472 536.919800,408.265045 
M655.082642,429.670898 
	C655.082642,436.936584 655.082642,444.202271 655.082642,451.568909 
	C659.274292,451.568909 663.366516,451.568909 666.934753,451.568909 
	C666.934753,444.020599 667.005737,436.708893 666.910767,429.399323 
	C666.842896,424.175507 664.883850,422.162323 659.648254,422.006927 
	C654.492554,421.853943 649.325928,421.858704 644.169495,421.996338 
	C638.623596,422.144318 636.830383,424.121094 636.816711,429.718323 
	C636.799011,436.967468 636.812378,444.216705 636.812378,451.560425 
	C640.869751,451.560425 644.961243,451.560425 648.602417,451.560425 
	C648.602417,444.023163 648.476868,436.730530 648.720154,429.450256 
	C648.763184,428.163574 650.103760,426.229706 651.271118,425.825745 
	C653.246460,425.142151 655.348999,425.711273 655.082642,429.670898 
M584.840637,451.785370 
	C588.605042,451.785370 592.369385,451.785370 595.913269,451.785370 
	C595.729553,447.711456 595.497131,444.237244 595.434937,440.760010 
	C595.353943,436.231262 592.975525,434.024536 588.614624,433.905762 
	C584.507507,433.793884 580.394958,433.881714 576.333374,433.881714 
	C575.385864,425.740784 575.385864,425.740326 583.066345,425.737640 
	C586.514160,425.736450 589.961914,425.737457 593.500854,425.737457 
	C593.963867,422.861298 592.721375,421.830353 589.683228,421.930267 
	C583.862366,422.121613 578.030273,421.937378 572.203796,422.001617 
	C565.963562,422.070404 564.154114,423.871735 564.111938,430.037201 
	C564.063293,437.146759 564.100647,444.256866 564.100647,451.432617 
	C567.751831,451.432617 571.639893,451.432617 575.961792,451.432617 
	C575.961792,447.764496 576.106445,444.459503 575.918579,441.173523 
	C575.751282,438.247101 577.072388,437.386047 579.759216,437.431030 
	C582.279724,437.473206 583.899292,438.000244 583.788269,441.043182 
	C583.659424,444.577423 583.866272,448.123871 584.840637,451.785370 
M631.692871,431.763092 
	C631.520752,423.149994 630.359497,422.003326 621.739441,421.985748 
	C616.412903,421.974915 611.076782,421.810638 605.766357,422.103851 
	C604.386658,422.180023 603.087463,423.714569 601.751282,424.579254 
	C606.024658,425.738220 609.496155,425.737030 612.967651,425.738464 
	C620.569275,425.741608 620.569275,425.742157 619.423096,433.912323 
	C615.178772,433.912323 610.892273,433.808716 606.613403,433.943726 
	C602.911682,434.060547 600.688171,435.857880 600.816040,439.869324 
	C600.869019,441.532166 600.922302,443.204956 600.806030,444.861328 
	C600.494324,449.302185 602.885986,451.492584 606.952332,451.649902 
	C613.266663,451.894226 619.603882,451.925171 625.917053,451.678284 
	C629.738953,451.528809 631.987183,449.418762 631.806152,445.185028 
	C631.628479,441.030579 631.732300,436.864105 631.692871,431.763092 
M534.169250,425.740417 
	C537.498047,425.746552 540.864502,425.467163 544.137329,425.898346 
	C545.460205,426.072632 547.568726,427.746277 547.626648,428.828278 
	C547.961304,435.080963 547.789978,441.360718 547.789978,447.815063 
	C545.106323,447.815063 542.911194,447.815063 540.769958,447.815063 
	C539.366882,436.147156 539.001770,435.861389 528.340210,437.807220 
	C528.540588,440.418335 528.874817,443.039734 528.912842,445.665405 
	C528.974243,449.902039 531.351562,451.677277 535.219421,451.741241 
	C541.375488,451.843079 547.541138,451.940063 553.689636,451.702393 
	C557.466614,451.556396 559.849365,449.651184 559.695923,445.343475 
	C559.506409,440.023499 559.687195,434.690948 559.529419,429.369110 
	C559.366333,423.867950 557.463623,422.078522 551.743530,422.005676 
	C544.815247,421.917480 537.885010,421.984772 529.215088,421.984772 
	C531.194824,423.776031 532.270447,424.749268 534.169250,425.740417 
M385.575256,448.220703 
	C383.468597,448.220703 381.361938,448.220703 379.255280,448.220703 
	C379.046387,448.632996 378.837494,449.045258 378.628601,449.457550 
	C379.881165,450.245239 381.112335,451.670044 382.389954,451.713043 
	C388.714386,451.925842 395.059357,451.961060 401.380676,451.684204 
	C405.619965,451.498566 408.052155,449.238037 407.875610,444.566742 
	C407.674316,439.240479 407.734314,433.901489 407.791595,428.569214 
	C407.838928,424.164581 405.529297,422.099854 401.369904,422.025818 
	C395.038605,421.913116 388.698212,421.838898 382.375763,422.095612 
	C381.100983,422.147369 379.888977,423.746918 378.648010,424.632843 
	C378.921387,425.083160 379.194794,425.533478 379.468170,425.983795 
	C380.447021,425.919525 381.424988,425.829346 382.404877,425.794830 
	C396.001678,425.316772 396.001740,425.318634 396.013123,438.737732 
	C396.021149,448.221344 396.021149,448.221344 385.575256,448.220703 
M398.500122,415.164001 
	C417.296753,415.164001 436.093384,415.164001 454.982483,415.164001 
	C455.449860,412.859833 455.823639,411.017181 456.202911,409.147400 
	C429.485565,409.147400 403.255280,409.147400 376.720367,409.147400 
	C377.093994,411.326019 377.397125,413.093597 377.752228,415.164124 
	C384.536957,415.164124 391.018585,415.164124 398.500122,415.164001 
z"/>
<path fill="#65BD55" opacity="1.000000" stroke="none" 
	d="
M583.975403,300.947449 
	C582.962769,313.284332 580.978821,325.350189 575.536926,336.685333 
	C559.618286,369.843384 522.846802,389.630035 487.918427,383.661713 
	C448.804291,376.978149 420.747650,347.616180 416.811249,309.248932 
	C416.556732,306.768188 416.286560,304.289062 415.964661,301.252594 
	C387.413910,299.970245 364.118744,288.277557 347.538269,264.577087 
	C336.132782,248.273895 331.547729,229.922852 333.123749,210.152878 
	C336.237976,171.086884 368.646515,134.493515 416.037720,133.361176 
	C417.231628,106.174019 427.967926,83.576447 449.934570,66.940720 
	C465.336060,55.276939 482.926208,49.744118 502.198639,50.222282 
	C545.135437,51.287586 583.533630,86.529465 584.068970,133.108734 
	C590.415405,134.069687 596.870300,134.608810 603.111633,136.063873 
	C640.897461,144.873001 667.490784,179.385269 667.025940,218.701782 
	C666.574219,256.919342 639.009644,290.855011 601.853516,298.925873 
	C601.204895,299.066772 600.532043,299.096375 599.443115,298.677002 
	C598.967773,283.932526 598.919739,269.688904 599.134399,255.255493 
	C619.256531,245.508133 628.597046,225.563995 622.596252,205.530457 
	C617.422974,188.259766 599.546448,175.019012 583.651001,177.049438 
	C583.651001,184.945770 583.621704,192.902298 583.656860,200.858566 
	C583.741272,219.973663 583.855835,239.088608 583.783081,258.569336 
	C583.408508,259.894440 583.038818,260.853271 583.035461,261.813354 
	C582.995117,273.424561 582.975342,285.036224 583.051086,296.647095 
	C583.060486,298.082489 583.653076,299.514099 583.975403,300.947449 
M459.041565,146.599579 
	C459.050751,165.812119 459.059906,185.024658 459.070160,205.144882 
	C459.056274,237.272415 458.718292,269.404358 459.156952,301.525726 
	C459.398132,319.187103 468.465759,332.004272 484.731537,338.688599 
	C500.685760,345.244873 515.485474,341.974579 528.157288,330.310699 
	C539.743469,319.646179 541.870361,305.712677 540.763000,290.915771 
	C540.677246,289.770691 539.213257,288.562256 538.141663,287.687134 
	C534.151428,284.428589 529.516602,281.790192 526.093445,278.035004 
	C508.275787,258.489563 490.756744,238.671860 473.680511,218.334747 
	C473.789459,216.519958 473.990509,214.705292 473.993103,212.890350 
	C474.019623,194.255051 474.014008,175.619705 474.632111,157.246063 
	C496.423950,181.377151 518.215820,205.508255 540.205688,229.858627 
	C540.626526,228.941177 540.861572,228.667938 540.861694,228.394592 
	C540.873291,196.255676 541.199158,164.112030 540.741943,131.979538 
	C540.453552,111.709816 523.208435,94.374092 503.361633,93.077263 
	C482.086884,91.687126 463.540039,105.587387 459.959320,126.215897 
	C458.861816,132.538391 459.346924,139.135590 459.041565,146.599579 
M416.249359,202.500015 
	C416.249359,193.890427 416.249359,185.280838 416.249359,176.261414 
	C399.485474,177.396164 387.188629,184.580215 380.032074,199.051361 
	C372.696045,213.885391 374.001221,228.574219 383.846436,241.947342 
	C391.673645,252.579300 402.508850,257.815002 416.249481,258.101990 
	C416.249481,239.436752 416.249481,221.468384 416.249359,202.500015 
z"/>
<path fill="#E8363E" opacity="1.000000" stroke="none" 
	d="
M460.509583,426.197998 
	C460.406219,422.453827 460.297058,419.124908 460.343567,415.798157 
	C460.404785,411.420135 462.605560,408.860291 467.078857,408.850128 
	C482.856079,408.814270 498.635925,408.734406 514.409668,408.988586 
	C519.918884,409.077393 521.708801,411.413696 521.820068,416.860413 
	C521.864258,419.023529 522.254883,421.283691 521.764709,423.326111 
	C521.205383,425.656738 519.839905,427.793854 518.793091,430.084290 
	C522.413147,431.122803 521.952759,435.210907 521.947571,439.255371 
	C521.932800,450.807312 521.022034,451.793243 509.592926,451.795074 
	C501.769836,451.796356 493.939941,451.600464 486.126404,451.873749 
	C482.050049,452.016327 480.988403,450.177368 481.017944,447.176544 
	C488.403137,447.176544 495.502411,447.119171 502.599884,447.206207 
	C505.245514,447.238647 506.175537,446.089539 505.972473,443.568420 
	C505.839203,441.914429 505.943359,440.241455 505.938324,438.576965 
	C505.919617,432.411865 505.919189,432.411865 499.700806,432.617065 
	C499.608948,430.860321 499.516663,429.096222 499.424622,427.336487 
	C505.973938,426.849182 507.387024,424.698944 505.651367,416.429871 
	C504.576996,411.311340 500.525543,414.263824 497.091675,413.890961 
	C497.091675,418.022186 497.102783,421.803986 497.088593,425.585724 
	C497.073608,429.566345 495.061981,432.045746 491.110870,432.138062 
	C482.969574,432.328186 474.817535,432.299225 466.675781,432.109131 
	C463.342499,432.031250 461.108307,430.111725 460.509583,426.197998 
M481.743958,425.934875 
	C481.751190,423.139862 482.086334,420.290527 481.635681,417.571411 
	C481.388275,416.078674 480.046967,413.943115 478.794983,413.608398 
	C475.981354,412.856262 475.830841,415.214600 475.886536,417.337463 
	C475.946930,419.638428 475.863342,421.943848 475.950073,424.243256 
	C476.108429,428.441650 477.158661,428.905457 481.743958,425.934875 
z"/>
<path fill="#E8353D" opacity="1.000000" stroke="none" 
	d="
M332.905212,420.169617 
	C332.977173,410.862793 334.976746,408.811890 343.815002,408.757385 
	C352.798157,408.701996 361.781921,408.745148 371.183777,408.745148 
	C371.534729,410.463196 371.850922,412.011230 372.147827,413.464661 
	C365.746582,413.464661 359.630005,413.576843 353.520050,413.423920 
	C349.652313,413.327148 348.045105,414.909790 348.284119,418.776855 
	C348.476013,421.881195 348.322937,425.006836 348.322937,427.980194 
	C354.686920,427.980194 360.296692,427.804749 365.890381,428.029053 
	C371.606842,428.258331 373.882935,430.836792 374.021759,436.550476 
	C374.368286,450.814148 373.404907,451.792389 359.004730,451.791931 
	C353.338837,451.791748 347.670166,451.900055 342.007751,451.759064 
	C335.388519,451.594269 333.043640,449.152222 332.989716,442.640259 
	C332.929016,435.308289 332.931580,427.975830 332.905212,420.169617 
M348.443939,443.168823 
	C348.779999,444.379425 348.950439,446.546387 349.480255,446.638123 
	C352.030243,447.079742 354.759186,447.347748 357.242706,446.820496 
	C358.049744,446.649170 358.557709,443.909088 358.750031,442.290161 
	C359.001312,440.175476 359.015533,437.976410 358.708893,435.875336 
	C358.554657,434.818604 357.672272,433.344177 356.766266,433.007141 
	C351.308441,430.976593 348.337311,433.111694 348.365051,438.793274 
	C348.370697,439.947937 348.414062,441.102386 348.443939,443.168823 
z"/>
<path fill="#E83941" opacity="1.000000" stroke="none" 
	d="
M413.049622,442.825500 
	C413.019806,437.351929 413.071869,432.352295 412.934082,427.357910 
	C412.828033,423.512939 414.611450,421.938080 418.362396,421.966095 
	C427.939697,422.037689 437.518402,421.934082 447.095612,422.013550 
	C452.504700,422.058411 454.314575,423.796143 454.416931,429.212524 
	C454.555084,436.521912 454.451202,443.835846 454.451202,451.477844 
	C451.365967,451.477844 447.627136,451.477844 443.552063,451.477844 
	C443.552063,443.182281 443.552063,434.800568 443.552063,426.356720 
	C439.303802,425.053284 437.030273,425.425812 437.320923,430.604187 
	C437.702423,437.400818 437.414520,444.235016 437.414520,451.431396 
	C435.179657,451.431396 432.466400,451.431396 429.793457,451.431396 
	C429.793457,443.116821 429.793457,434.873535 429.793457,426.067871 
	C427.991943,425.955688 426.272766,425.848663 424.121643,425.714722 
	C424.121643,434.463043 424.121643,442.864227 424.121643,451.536743 
	C420.463348,451.536743 416.700684,451.536743 413.049835,451.536743 
	C413.049835,448.762695 413.049835,446.032166 413.049622,442.825500 
z"/>
<path fill="#E93E45" opacity="1.000000" stroke="none" 
	d="
M537.372559,408.265259 
	C579.277344,408.265472 620.729309,408.265472 662.473267,408.265472 
	C661.772644,413.252960 659.656372,415.206146 654.205078,415.166534 
	C616.080505,414.889435 577.953003,415.020020 539.826416,415.020111 
	C538.009644,415.020111 536.192932,415.020142 534.134399,415.020142 
	C533.541809,412.925446 533.011414,411.050598 532.320251,408.607422 
	C534.127686,408.472900 535.523743,408.368958 537.372559,408.265259 
z"/>
<path fill="#E93A41" opacity="1.000000" stroke="none" 
	d="
M655.081055,429.187683 
	C655.348999,425.711273 653.246460,425.142151 651.271118,425.825745 
	C650.103760,426.229706 648.763184,428.163574 648.720154,429.450256 
	C648.476868,436.730530 648.602417,444.023163 648.602417,451.560425 
	C644.961243,451.560425 640.869751,451.560425 636.812378,451.560425 
	C636.812378,444.216705 636.799011,436.967468 636.816711,429.718323 
	C636.830383,424.121094 638.623596,422.144318 644.169495,421.996338 
	C649.325928,421.858704 654.492554,421.853943 659.648254,422.006927 
	C664.883850,422.162323 666.842896,424.175507 666.910767,429.399323 
	C667.005737,436.708893 666.934753,444.020599 666.934753,451.568909 
	C663.366516,451.568909 659.274292,451.568909 655.082642,451.568909 
	C655.082642,444.202271 655.082642,436.936584 655.081055,429.187683 
z"/>
<path fill="#56A44F" opacity="1.000000" stroke="none" 
	d="
M584.422058,300.958679 
	C583.653076,299.514099 583.060486,298.082489 583.051086,296.647095 
	C582.975342,285.036224 582.995117,273.424561 583.035461,261.813354 
	C583.038818,260.853271 583.408508,259.894440 584.221924,258.543457 
	C589.514465,257.249725 594.193115,256.347504 598.871704,255.445312 
	C598.919739,269.688904 598.967773,283.932526 599.028687,298.654236 
	C594.317322,299.744873 589.593018,300.357391 584.422058,300.958679 
z"/>
<path fill="#E93A41" opacity="1.000000" stroke="none" 
	d="
M584.384033,451.725220 
	C583.866272,448.123871 583.659424,444.577423 583.788269,441.043182 
	C583.899292,438.000244 582.279724,437.473206 579.759216,437.431030 
	C577.072388,437.386047 575.751282,438.247101 575.918579,441.173523 
	C576.106445,444.459503 575.961792,447.764496 575.961792,451.432617 
	C571.639893,451.432617 567.751831,451.432617 564.100647,451.432617 
	C564.100647,444.256866 564.063293,437.146759 564.111938,430.037201 
	C564.154114,423.871735 565.963562,422.070404 572.203796,422.001617 
	C578.030273,421.937378 583.862366,422.121613 589.683228,421.930267 
	C592.721375,421.830353 593.963867,422.861298 593.500854,425.737457 
	C589.961914,425.737457 586.514160,425.736450 583.066345,425.737640 
	C575.385864,425.740326 575.385864,425.740784 576.333374,433.881714 
	C580.394958,433.881714 584.507507,433.793884 588.614624,433.905762 
	C592.975525,434.024536 595.353943,436.231262 595.434937,440.760010 
	C595.497131,444.237244 595.729553,447.711456 595.913269,451.785370 
	C592.369385,451.785370 588.605042,451.785370 584.384033,451.725220 
z"/>
<path fill="#E93A42" opacity="1.000000" stroke="none" 
	d="
M631.702759,432.233002 
	C631.732300,436.864105 631.628479,441.030579 631.806152,445.185028 
	C631.987183,449.418762 629.738953,451.528809 625.917053,451.678284 
	C619.603882,451.925171 613.266663,451.894226 606.952332,451.649902 
	C602.885986,451.492584 600.494324,449.302185 600.806030,444.861328 
	C600.922302,443.204956 600.869019,441.532166 600.816040,439.869324 
	C600.688171,435.857880 602.911682,434.060547 606.613403,433.943726 
	C610.892273,433.808716 615.178772,433.912323 619.423096,433.912323 
	C620.569275,425.742157 620.569275,425.741608 612.967651,425.738464 
	C609.496155,425.737030 606.024658,425.738220 601.751282,424.579254 
	C603.087463,423.714569 604.386658,422.180023 605.766357,422.103851 
	C611.076782,421.810638 616.412903,421.974915 621.739441,421.985748 
	C630.359497,422.003326 631.520752,423.149994 631.702759,432.233002 
M617.460999,448.279480 
	C622.815979,446.431549 618.846741,442.081940 619.927246,439.087189 
	C618.233215,438.500977 616.461182,437.261871 614.859924,437.452972 
	C610.343506,437.992096 612.697632,441.767181 612.270630,444.166504 
	C611.691040,447.423340 613.374268,448.715729 617.460999,448.279480 
z"/>
<path fill="#E93B42" opacity="1.000000" stroke="none" 
	d="
M533.757690,425.731476 
	C532.270447,424.749268 531.194824,423.776031 529.215088,421.984772 
	C537.885010,421.984772 544.815247,421.917480 551.743530,422.005676 
	C557.463623,422.078522 559.366333,423.867950 559.529419,429.369110 
	C559.687195,434.690948 559.506409,440.023499 559.695923,445.343475 
	C559.849365,449.651184 557.466614,451.556396 553.689636,451.702393 
	C547.541138,451.940063 541.375488,451.843079 535.219421,451.741241 
	C531.351562,451.677277 528.974243,449.902039 528.912842,445.665405 
	C528.874817,443.039734 528.540588,440.418335 528.340210,437.807220 
	C539.001770,435.861389 539.366882,436.147156 540.769958,447.815063 
	C542.911194,447.815063 545.106323,447.815063 547.789978,447.815063 
	C547.789978,441.360718 547.961304,435.080963 547.626648,428.828278 
	C547.568726,427.746277 545.460205,426.072632 544.137329,425.898346 
	C540.864502,425.467163 537.498047,425.746552 533.757690,425.731476 
z"/>
<path fill="#E93E45" opacity="1.000000" stroke="none" 
	d="
M386.055359,448.221497 
	C396.021149,448.221344 396.021149,448.221344 396.013123,438.737732 
	C396.001740,425.318634 396.001678,425.316772 382.404877,425.794830 
	C381.424988,425.829346 380.447021,425.919525 379.468170,425.983795 
	C379.194794,425.533478 378.921387,425.083160 378.648010,424.632843 
	C379.888977,423.746918 381.100983,422.147369 382.375763,422.095612 
	C388.698212,421.838898 395.038605,421.913116 401.369904,422.025818 
	C405.529297,422.099854 407.838928,424.164581 407.791595,428.569214 
	C407.734314,433.901489 407.674316,439.240479 407.875610,444.566742 
	C408.052155,449.238037 405.619965,451.498566 401.380676,451.684204 
	C395.059357,451.961060 388.714386,451.925842 382.389954,451.713043 
	C381.112335,451.670044 379.881165,450.245239 378.628601,449.457550 
	C378.837494,449.045258 379.046387,448.632996 379.255280,448.220703 
	C381.361938,448.220703 383.468597,448.220703 386.055359,448.221497 
z"/>
<path fill="#E72F37" opacity="1.000000" stroke="none" 
	d="
M398.000183,415.164062 
	C391.018585,415.164124 384.536957,415.164124 377.752228,415.164124 
	C377.397125,413.093597 377.093994,411.326019 376.720367,409.147400 
	C403.255280,409.147400 429.485565,409.147400 456.202911,409.147400 
	C455.823639,411.017181 455.449860,412.859833 454.982483,415.164001 
	C436.093384,415.164001 417.296753,415.164001 398.000183,415.164062 
z"/>
<path fill="#FEFEFD" opacity="1.000000" stroke="none" 
	d="
M473.133759,218.948944 
	C490.756744,238.671860 508.275787,258.489563 526.093445,278.035004 
	C529.516602,281.790192 534.151428,284.428589 538.141663,287.687134 
	C539.213257,288.562256 540.677246,289.770691 540.763000,290.915771 
	C541.870361,305.712677 539.743469,319.646179 528.157288,330.310699 
	C515.485474,341.974579 500.685760,345.244873 484.731537,338.688599 
	C468.465759,332.004272 459.398132,319.187103 459.156952,301.525726 
	C458.718292,269.404358 459.056274,237.272415 459.371552,204.794617 
	C464.159882,209.279221 468.646820,214.114090 473.133759,218.948944 
z"/>
<path fill="#FDFEFD" opacity="1.000000" stroke="none" 
	d="
M459.107300,145.606995 
	C459.346924,139.135590 458.861816,132.538391 459.959320,126.215897 
	C463.540039,105.587387 482.086884,91.687126 503.361633,93.077263 
	C523.208435,94.374092 540.453552,111.709816 540.741943,131.979538 
	C541.199158,164.112030 540.873291,196.255676 540.861694,228.394592 
	C540.861572,228.667938 540.626526,228.941177 540.205688,229.858627 
	C518.215820,205.508255 496.423950,181.377151 474.175354,156.814804 
	C468.848145,152.791367 463.977722,149.199188 459.107300,145.606995 
z"/>
<path fill="#FEFEFE" opacity="1.000000" stroke="none" 
	d="
M416.249420,203.000031 
	C416.249481,221.468384 416.249481,239.436752 416.249481,258.101990 
	C402.508850,257.815002 391.673645,252.579300 383.846436,241.947342 
	C374.001221,228.574219 372.696045,213.885391 380.032074,199.051361 
	C387.188629,184.580215 399.485474,177.396164 416.249359,176.261414 
	C416.249359,185.280838 416.249359,193.890427 416.249420,203.000031 
z"/>
<path fill="#FEFEFE" opacity="1.000000" stroke="none" 
	d="
M599.134399,255.255493 
	C594.193115,256.347504 589.514465,257.249725 584.397095,258.177765 
	C583.855835,239.088608 583.741272,219.973663 583.656860,200.858566 
	C583.621704,192.902298 583.651001,184.945770 583.651001,177.049438 
	C599.546448,175.019012 617.422974,188.259766 622.596252,205.530457 
	C628.597046,225.563995 619.256531,245.508133 599.134399,255.255493 
z"/>
<path fill="#55A34F" opacity="1.000000" stroke="none" 
	d="
M459.074432,146.103287 
	C463.977722,149.199188 468.848145,152.791367 473.867950,156.683960 
	C474.014008,175.619705 474.019623,194.255051 473.993103,212.890350 
	C473.990509,214.705292 473.789459,216.519958 473.407135,218.641846 
	C468.646820,214.114090 464.159882,209.279221 459.371002,204.340790 
	C459.059906,185.024658 459.050751,165.812119 459.074432,146.103287 
z"/>
<path fill="#FDEEEF" opacity="1.000000" stroke="none" 
	d="
M481.624542,426.362122 
	C477.158661,428.905457 476.108429,428.441650 475.950073,424.243256 
	C475.863342,421.943848 475.946930,419.638428 475.886536,417.337463 
	C475.830841,415.214600 475.981354,412.856262 478.794983,413.608398 
	C480.046967,413.943115 481.388275,416.078674 481.635681,417.571411 
	C482.086334,420.290527 481.751190,423.139862 481.624542,426.362122 
z"/>
<path fill="#FDF4F5" opacity="1.000000" stroke="none" 
	d="
M348.441986,442.712891 
	C348.414062,441.102386 348.370697,439.947937 348.365051,438.793274 
	C348.337311,433.111694 351.308441,430.976593 356.766266,433.007141 
	C357.672272,433.344177 358.554657,434.818604 358.708893,435.875336 
	C359.015533,437.976410 359.001312,440.175476 358.750031,442.290161 
	C358.557709,443.909088 358.049744,446.649170 357.242706,446.820496 
	C354.759186,447.347748 352.030243,447.079742 349.480255,446.638123 
	C348.950439,446.546387 348.779999,444.379425 348.441986,442.712891 
z"/>
<path fill="#FDEEEF" opacity="1.000000" stroke="none" 
	d="
M617.000000,448.284912 
	C613.374268,448.715729 611.691040,447.423340 612.270630,444.166504 
	C612.697632,441.767181 610.343506,437.992096 614.859924,437.452972 
	C616.461182,437.261871 618.233215,438.500977 619.927246,439.087189 
	C618.846741,442.081940 622.815979,446.431549 617.000000,448.284912 
z"/>
</svg>